<svg xmlns="http://www.w3.org/2000/svg" xmlns:xlink="http://www.w3.org/1999/xlink" width="500" zoomAndPan="magnify" viewBox="0 0 375 374.999991" height="500" preserveAspectRatio="xMidYMid meet" version="1.0"><defs><clipPath id="b4564f4c88"><path d="M 3.429688 262 L 116 262 L 116 374.679688 L 3.429688 374.679688 Z M 3.429688 262 " clip-rule="nonzero"/></clipPath><clipPath id="c549564106"><path d="M 3.429688 3.429688 L 116 3.429688 L 116 116 L 3.429688 116 Z M 3.429688 3.429688 " clip-rule="nonzero"/></clipPath><clipPath id="307856e127"><path d="M 262 3.429688 L 374.679688 3.429688 L 374.679688 116 L 262 116 Z M 262 3.429688 " clip-rule="nonzero"/></clipPath><clipPath id="9cd2f95ac5"><path d="M 262 262 L 374.679688 262 L 374.679688 374.679688 L 262 374.679688 Z M 262 262 " clip-rule="nonzero"/></clipPath></defs><g clip-path="url(#b4564f4c88)"><path fill="#58595b" d="M 15.40625 322.71875 L 15.40625 262.269531 L 3.429688 262.269531 L 3.429688 322.71875 C 3.429688 336.597656 8.832031 349.644531 18.648438 359.460938 C 28.460938 369.273438 41.511719 374.679688 55.390625 374.679688 L 115.835938 374.679688 L 115.835938 362.703125 L 55.390625 362.703125 C 33.34375 362.703125 15.40625 344.765625 15.40625 322.71875 " fill-opacity="1" fill-rule="nonzero"/></g><g clip-path="url(#c549564106)"><path fill="#58595b" d="M 15.40625 55.390625 C 15.40625 33.34375 33.34375 15.40625 55.390625 15.40625 L 115.835938 15.40625 L 115.835938 3.429688 L 55.390625 3.429688 C 41.511719 3.429688 28.460938 8.835938 18.648438 18.648438 C 8.832031 28.464844 3.429688 41.511719 3.429688 55.390625 L 3.429688 115.839844 L 15.40625 115.839844 L 15.40625 55.390625 " fill-opacity="1" fill-rule="nonzero"/></g><g clip-path="url(#307856e127)"><path fill="#58595b" d="M 359.457031 18.648438 C 349.644531 8.835938 336.597656 3.429688 322.714844 3.429688 L 262.269531 3.429688 L 262.269531 15.40625 L 322.714844 15.40625 C 344.761719 15.40625 362.703125 33.34375 362.703125 55.390625 L 362.703125 115.839844 L 374.675781 115.839844 L 374.675781 55.390625 C 374.675781 41.511719 369.273438 28.464844 359.457031 18.648438 " fill-opacity="1" fill-rule="nonzero"/></g><g clip-path="url(#9cd2f95ac5)"><path fill="#58595b" d="M 362.703125 322.71875 C 362.703125 344.765625 344.761719 362.703125 322.714844 362.703125 L 262.269531 362.703125 L 262.269531 374.679688 L 322.714844 374.679688 C 336.597656 374.679688 349.644531 369.273438 359.457031 359.460938 C 369.273438 349.644531 374.675781 336.597656 374.675781 322.71875 L 374.675781 262.269531 L 362.703125 262.269531 L 362.703125 322.71875 " fill-opacity="1" fill-rule="nonzero"/></g></svg>